<?xml version="1.0" encoding="utf-8"?>
<svg viewBox="0 0 66 47" xmlns="http://www.w3.org/2000/svg" xmlns:xlink="http://www.w3.org/1999/xlink">
  <polygon style="fill: rgb(14, 169, 171);" points="27.404 8.395 31.65 6.079 20.868 -0.055 0 11.289 0.015 35.895 21.132 47.034 42.07 35.123 42.167 12.061 38.885 10.035 34.833 12.448 37.342 13.895 37.342 32.711 21.132 42.263 4.246 32.904 4.15 14.184 20.939 4.922"/>
  <polygon style="fill: rgb(16, 130, 130);" points="31.455 34.061 29.237 32.807 29.236 13.605 45.448 4.438 62.044 13.991 61.947 32.807 45.64 42.263 39.466 38.596 35.124 41.106 45.351 47.034 66.015 35.336 66 11.289 45.428 -0.045 24.702 11.288 24.702 35.123 27.209 36.667"/>
</svg>